<?xml version="1.0" standalone="no"?>
<!DOCTYPE svg PUBLIC "-//W3C//DTD SVG 20010904//EN"
 "http://www.w3.org/TR/2001/REC-SVG-20010904/DTD/svg10.dtd">
<svg version="1.0" xmlns="http://www.w3.org/2000/svg"
 width="816.000000pt" height="816.000000pt" viewBox="0 0 816.000000 816.000000"
 preserveAspectRatio="xMidYMid meet">
<metadata>
Created by potrace 1.11, written by Peter Selinger 2001-2013
</metadata>
<g transform="translate(0.000000,816.000000) scale(0.100000,-0.100000)"
fill="#000000" stroke="none">
<path d="M4119 7992 c-64 -67 -289 -271 -345 -315 -16 -12 -35 -27 -42 -34 -7
-7 -18 -13 -23 -13 -5 0 -9 -7 -9 -15 0 -8 -6 -15 -14 -15 -8 0 -16 -3 -18 -8
-1 -4 -39 -36 -83 -72 -44 -36 -89 -73 -100 -84 -11 -10 -36 -30 -55 -45 -37
-28 -158 -139 -196 -181 -77 -84 -102 -114 -164 -195 -37 -50 -78 -108 -91
-130 -13 -22 -26 -42 -29 -45 -3 -3 -12 -18 -20 -35 -8 -16 -17 -32 -20 -35
-9 -8 -90 -178 -90 -188 0 -5 -7 -23 -15 -40 -9 -17 -18 -39 -19 -49 -2 -10
-11 -36 -19 -58 -17 -44 -36 -111 -42 -153 -3 -15 -6 -34 -8 -42 -2 -8 -7 -37
-11 -65 -4 -27 -10 -61 -12 -75 -5 -31 -5 -273 0 -315 2 -16 7 -57 11 -90 4
-33 9 -63 11 -66 2 -3 6 -21 9 -40 9 -53 47 -203 53 -214 4 -5 8 -19 9 -30 3
-16 29 -96 51 -155 3 -8 6 -17 7 -20 1 -3 5 -14 10 -25 4 -11 25 -63 45 -115
20 -52 47 -117 59 -145 13 -27 31 -68 41 -90 9 -22 50 -114 90 -205 40 -91 86
-194 102 -230 16 -36 59 -139 95 -230 35 -91 69 -174 74 -185 5 -11 11 -29 14
-40 2 -11 18 -63 35 -115 17 -52 33 -103 36 -112 9 -38 13 -54 23 -86 5 -18
10 -35 10 -37 1 -3 1 -6 2 -7 0 -2 2 -14 5 -28 2 -14 11 -59 20 -100 9 -41 17
-83 19 -94 3 -10 7 -44 11 -75 3 -31 7 -60 8 -65 1 -9 -9 -11 -101 -19 -38 -3
-43 -1 -44 17 -1 34 -7 89 -13 121 -3 17 -8 48 -11 70 -3 22 -8 51 -11 65 -3
14 -8 36 -10 50 -3 14 -10 43 -16 65 -5 22 -12 48 -13 57 -13 63 -81 283 -128
408 -66 179 -235 527 -259 538 -5 2 -8 8 -8 14 0 10 -128 206 -167 256 -86
110 -120 150 -208 238 -100 101 -216 199 -291 244 -21 13 -41 27 -44 30 -14
18 -253 129 -290 135 -3 0 -27 8 -55 17 -48 16 -97 28 -140 34 -11 1 -40 6
-65 10 -52 9 -265 9 -325 1 -74 -10 -120 -18 -160 -29 -22 -6 -48 -13 -57 -15
-9 -1 -52 -17 -95 -34 -242 -95 -428 -242 -582 -459 -61 -84 -147 -240 -164
-295 -3 -11 -15 -47 -27 -80 -44 -126 -64 -260 -63 -425 0 -134 9 -208 38
-330 1 -3 5 -21 9 -40 5 -19 12 -39 16 -45 4 -5 10 -23 14 -40 4 -16 18 -53
32 -82 13 -29 23 -56 23 -59 0 -4 3 -10 8 -13 4 -3 19 -26 32 -51 23 -42 59
-98 71 -110 3 -3 18 -23 35 -45 66 -89 276 -275 312 -275 6 0 13 -4 15 -8 5
-12 124 -66 199 -91 94 -31 201 -47 299 -45 132 2 123 -1 116 37 -6 34 -19
135 -19 152 1 62 19 209 30 235 3 8 7 22 9 30 8 39 90 182 127 222 56 60 128
113 191 142 57 26 126 48 126 39 0 -3 6 -1 13 4 6 6 25 9 40 8 15 -1 30 2 33
7 3 4 9 6 13 4 4 -3 37 -7 73 -10 272 -23 503 -233 660 -602 22 -49 57 -155
58 -170 0 -5 -32 -21 -72 -33 -176 -57 -343 -177 -363 -262 -20 -88 -9 -179
27 -226 37 -47 103 -102 162 -135 70 -39 254 -108 287 -108 13 0 18 -4 13 -11
-4 -7 -8 -24 -10 -39 -5 -46 -46 -155 -76 -205 -67 -109 -110 -159 -193 -222
-44 -33 -132 -76 -180 -88 -16 -4 -41 -10 -55 -13 -31 -8 -215 -7 -255 1 -72
14 -119 29 -157 48 l-41 21 7 -54 c34 -266 240 -520 492 -609 83 -29 213 -36
293 -15 150 38 289 143 417 313 30 39 54 74 54 77 0 3 16 30 35 60 42 66 118
226 145 306 23 68 61 195 65 220 3 14 8 36 11 50 3 14 6 33 5 44 0 17 6 18 72
12 40 -3 73 -5 74 -6 1 0 0 -10 -3 -23 -2 -12 -6 -35 -9 -52 -15 -97 -95 -360
-144 -470 -12 -27 -26 -59 -30 -70 -42 -100 -151 -300 -226 -412 -43 -63 -43
-64 -27 -96 15 -32 140 -227 151 -237 3 -3 22 -25 41 -50 66 -86 211 -235 305
-315 26 -22 60 -50 74 -63 89 -77 286 -205 427 -276 69 -35 73 -36 107 -21 20
8 38 19 42 25 3 5 13 10 22 10 17 0 216 118 221 132 2 4 8 8 13 8 10 0 117 75
134 94 6 6 28 24 50 41 155 114 396 388 484 550 18 33 37 65 42 71 5 6 6 14 2
17 -3 4 -2 7 4 7 24 0 21 43 -5 84 -15 22 -29 43 -33 46 -3 3 -9 12 -13 20 -4
8 -12 24 -19 35 -79 129 -146 261 -201 391 -31 74 -86 231 -92 261 -2 12 -9
34 -14 49 -6 14 -8 30 -4 35 3 5 2 9 -3 9 -9 0 -48 188 -41 195 2 3 25 7 51 9
26 3 51 7 55 10 12 7 32 -9 36 -30 13 -65 59 -228 76 -269 4 -11 18 -47 31
-80 19 -51 43 -101 133 -282 6 -13 14 -23 19 -23 4 0 7 -5 7 -10 0 -32 176
-231 245 -278 22 -15 42 -30 45 -33 6 -7 108 -55 137 -63 65 -20 182 -26 253
-12 191 36 360 160 468 342 47 79 80 164 95 244 17 88 17 92 -1 85 -135 -53
-218 -71 -327 -69 -44 1 -89 4 -100 7 -107 26 -200 67 -254 112 -51 42 -105
102 -142 159 -42 63 -95 191 -104 252 l-7 39 107 34 c58 19 108 38 111 43 3 4
14 8 24 8 10 0 20 3 22 8 2 4 25 18 51 32 58 30 124 91 154 142 26 44 37 136
23 189 -27 99 -160 208 -325 266 -16 6 -39 15 -50 19 -27 10 -32 11 -50 13
-19 1 -14 37 20 126 112 299 288 518 490 610 39 18 86 35 105 39 19 3 46 9 60
12 34 8 35 8 120 0 122 -11 197 -37 295 -104 110 -76 199 -205 231 -334 2 -10
7 -28 10 -40 14 -56 21 -237 10 -269 -3 -8 -8 -31 -11 -53 -3 -21 -8 -43 -11
-48 -4 -6 -2 -13 4 -17 13 -8 225 -6 267 3 17 3 41 8 55 11 61 12 85 18 100
25 26 14 79 32 86 30 4 -1 10 2 13 7 3 4 23 16 44 25 66 31 173 107 246 174
77 71 201 220 201 241 0 7 3 13 8 13 23 0 151 297 165 385 3 17 10 50 16 75
24 106 32 294 18 415 -13 104 -17 126 -31 174 -7 25 -15 51 -16 56 -3 12 -5
17 -24 76 -27 84 -120 264 -153 297 -7 7 -13 17 -13 22 0 5 -6 15 -13 22 -7 7
-23 27 -35 43 -72 94 -231 237 -323 290 -73 42 -166 86 -229 109 -61 23 -105
38 -105 37 0 0 -18 4 -40 10 -88 22 -236 36 -335 32 -58 -2 -114 -4 -124 -4
-27 0 -196 -36 -228 -48 -16 -6 -28 -8 -28 -5 0 4 -6 2 -12 -3 -7 -6 -31 -16
-53 -23 -78 -24 -315 -153 -315 -171 0 -5 -5 -9 -11 -9 -10 0 -56 -32 -114
-80 -36 -30 -219 -213 -256 -256 -218 -255 -419 -620 -554 -1004 -14 -41 -29
-82 -32 -90 -3 -8 -7 -19 -8 -25 -2 -5 -12 -41 -23 -80 -12 -38 -31 -110 -43
-160 -34 -144 -33 -137 -48 -240 -6 -38 -13 -86 -17 -105 -3 -19 -5 -45 -5
-57 1 -20 -3 -22 -37 -17 -20 3 -50 6 -67 8 -16 2 -34 4 -38 5 -5 0 -6 13 -3
29 3 15 8 41 10 57 21 135 22 143 26 148 1 1 3 13 5 27 2 19 48 211 69 285 30
111 126 374 183 503 13 29 23 55 23 57 0 2 14 34 30 70 17 36 30 68 30 70 0 2
11 28 24 57 81 179 126 286 126 297 0 6 5 11 10 11 6 0 10 7 10 15 0 8 4 23 9
33 19 37 61 131 61 137 0 3 7 22 17 43 9 20 17 39 17 42 2 9 38 105 51 135 19
44 49 139 47 147 -1 4 5 22 13 42 19 45 55 198 70 296 4 25 11 65 15 90 10 52
6 387 -5 440 -27 138 -40 187 -71 280 -93 279 -267 553 -486 768 -82 80 -95
92 -157 142 -17 14 -41 33 -53 43 -13 11 -57 43 -98 72 -41 29 -85 63 -97 74
-12 12 -26 21 -32 21 -5 0 -11 3 -13 8 -1 4 -16 17 -32 30 -15 12 -50 41 -76
64 -26 24 -71 63 -100 88 -30 25 -94 84 -144 132 -50 48 -95 87 -101 87 -5 -1
-22 -13 -36 -27z m48 -1154 c1 -30 14 -218 19 -278 2 -36 7 -94 9 -130 7 -100
13 -188 19 -270 3 -41 8 -113 11 -160 3 -47 8 -125 11 -175 3 -49 7 -117 9
-150 5 -84 14 -236 20 -325 7 -94 15 -232 20 -332 2 -42 6 -121 9 -175 13
-239 19 -386 20 -495 1 -65 3 -118 6 -118 6 0 12 -314 14 -730 l1 -305 -172
-1 c-113 0 -174 3 -176 10 -7 18 6 1071 13 1071 1 0 3 45 5 101 4 136 17 404
30 639 4 61 8 144 10 185 4 73 6 107 20 314 7 106 11 161 19 331 4 61 8 133
10 160 3 28 8 91 11 140 4 50 8 113 10 140 2 28 7 91 10 140 3 50 8 113 11
140 6 77 17 248 16 268 0 9 3 17 7 17 4 0 8 -6 8 -12z m-3009 -1923 c75 -53
144 -102 154 -110 13 -10 21 -11 40 -1 12 7 25 13 28 13 12 4 48 17 80 31 19
9 43 16 52 17 10 1 23 7 30 12 19 14 138 56 144 51 2 -3 -2 -18 -10 -34 -8
-16 -28 -58 -44 -94 -17 -36 -41 -90 -55 -120 -43 -96 -45 -89 35 -161 39 -35
95 -85 124 -112 28 -26 67 -61 85 -77 l34 -30 -100 0 c-55 -1 -155 -1 -222 0
l-123 1 -47 -73 c-25 -40 -51 -76 -57 -80 -6 -4 -8 -8 -5 -8 7 0 -108 -182
-130 -207 -6 -7 -11 -18 -11 -24 0 -27 -11 1 -20 52 -5 30 -12 68 -15 84 -3
17 -8 44 -10 60 -3 17 -9 53 -15 80 -10 48 -19 96 -24 122 -3 17 -13 26 -34
28 -9 1 -44 6 -77 10 -33 4 -69 9 -80 10 -11 1 -20 3 -20 4 0 1 -25 4 -55 6
-30 3 -66 7 -78 10 -26 6 -28 4 91 92 21 15 43 33 50 38 6 6 44 34 83 63 63
48 70 56 68 85 -8 116 -14 357 -9 357 3 0 68 -43 143 -95z m6137 -91 l-1 -186
61 -46 c33 -26 65 -50 70 -55 6 -4 47 -35 93 -68 79 -59 96 -78 70 -80 -7 0
-22 -2 -33 -5 -11 -2 -38 -6 -60 -9 -48 -7 -80 -13 -80 -15 0 -1 -16 -3 -35
-5 -52 -6 -141 -22 -146 -27 -4 -4 -11 -48 -19 -113 -7 -50 -12 -83 -19 -120
-2 -11 -9 -60 -16 -109 l-13 -89 -23 39 c-13 21 -28 46 -33 54 -71 106 -131
202 -131 209 0 5 -3 11 -7 13 -5 2 -20 22 -36 46 l-27 42 -231 0 -231 0 37 33
c20 17 52 46 69 62 51 47 188 169 202 180 10 8 -4 47 -65 183 -44 95 -74 172
-67 172 6 0 48 -15 91 -33 44 -18 82 -33 85 -34 3 0 21 -7 40 -15 19 -8 58
-23 86 -33 l51 -18 79 54 c44 30 81 56 84 59 3 3 25 19 50 35 25 16 47 33 50
36 6 7 43 28 51 29 3 0 5 -84 4 -186z m-2970 -2724 c-8 -113 -13 -176 -19
-212 -2 -18 -8 -64 -12 -103 -6 -66 -11 -100 -14 -100 0 0 -3 -21 -5 -46 -2
-26 -7 -60 -10 -75 -2 -16 -7 -49 -11 -74 -3 -25 -7 -52 -9 -60 -2 -8 -7 -37
-11 -65 -3 -27 -8 -52 -9 -55 -2 -3 -6 -26 -10 -50 -3 -25 -16 -85 -27 -135
-11 -49 -22 -99 -23 -110 -2 -11 -4 -20 -5 -20 -1 0 -3 -8 -5 -18 -2 -11 -6
-21 -8 -23 -5 -5 -32 113 -42 181 -3 22 -7 47 -10 55 -2 8 -6 31 -9 50 -10 65
-17 115 -21 150 -3 19 -8 48 -11 65 -4 16 -8 43 -9 60 -2 16 -6 47 -9 68 -9
53 -15 105 -21 162 -3 28 -7 66 -10 85 -2 19 -6 58 -9 85 -3 28 -8 75 -11 105
-6 51 -9 121 -6 145 1 6 67 10 176 10 l175 0 -5 -75z"/>
</g>
</svg>
