<?xml version="1.0" encoding="utf-8"?>
<!-- Generator: Adobe Illustrator 15.0.2, SVG Export Plug-In . SVG Version: 6.00 Build 0)  -->
<!DOCTYPE svg PUBLIC "-//W3C//DTD SVG 1.1//EN" "http://www.w3.org/Graphics/SVG/1.1/DTD/svg11.dtd">
<svg version="1.1" id="Layer_1" xmlns="http://www.w3.org/2000/svg" xmlns:xlink="http://www.w3.org/1999/xlink" x="0px" y="0px"
	 width="170.109px" height="47.335px" viewBox="0 0 170.109 47.335" enable-background="new 0 0 170.109 47.335"
	 xml:space="preserve">
<path fill="#333333" d="M12.902,20.604c3.782-1.869,8.259-5.764,8.259-8.123c0-1.851-1.996-2.588-9.486-1.156l1.195,9.279H12.902z
	 M63.611,20.724l5.877,0.391l-3.134-7.496L63.611,20.724z M133.617,16.282c-0.055-1.465-2.049-2.516-7.014-2.494l-1.322,9.246
	C129.975,21.185,133.617,18.392,133.617,16.282 M163.531,14.106l-1.442,5.453c-3.585-1.453-7.461-2.554-9.674-2.554
	c-2.278,0-2.53,0.728-2.53,1.183c0,3.773,12.612,5.031,12.612,11.121c0,2.612-2.306,4.324-6.39,4.459
	c-3.938,0.131-7.735-1.91-11.541-5.264l1.342-2.007c2.691,1.976,5.621,3.11,8.477,3.659c2.12,0.182,3.135-0.372,3.135-1.647
	c0-4.159-13.924-4.384-13.924-11.929c0-2.876,2.309-5.768,7.242-5.768C156.348,10.815,163.531,14.106,163.531,14.106 M133.58,23.122
	l11.141,9.497l-3.463,4.092l-13.02-11.008c-1.567,0.64-3.225,1.19-3.225,1.19l-0.689,5.256l-3.09-0.227l1.645-20.425
	c9.875-0.397,16.787,1.202,16.787,4.51C139.667,18.164,136.829,20.772,133.58,23.122 M117.271,31.922l-10.69,1.452l-3.054-21.123
	l12.988-1.721v3.966l-8.589,0.969l0.517,4.086l7.144-0.53l0.929,6.068l-7.709,0.625l0.633,3.877l7.455-0.406L117.271,31.922z
	 M99.412,15.403L86.916,34.81L77.03,14.53l6.425-2.032l5.368,10.54l7.536-13.57L99.412,15.403z M78.812,28.597l-5.556,3.635
	l-3.314-9.281l-6.898,0.021L58.48,33.754l-2.85-1.196l8.467-22.404l5.684,1.289L78.812,28.597z M52.025,31.922l-10.64,1.401
	L38.332,12.2l12.993-1.723v3.967l-8.591,0.969l0.517,4.16l7.143-0.531l0.931,5.996l-7.712,0.622l0.631,3.878l7.457-0.408
	L52.025,31.922z M36.246,28.498c0,3.84-6.488,8.435-20.541,9.979l-0.63-3.529c10.23-2.282,14.651-5.521,14.651-7.492
	c0-2.085-3.592-3.456-16.254-2.163l0.816,6.53l-3.366,0.623L6.797,9.825c11.656-2.992,23.225-3.594,23.225,1.068
	c0,3.801-3.979,8.024-12.049,11.424C29.799,20.877,36.246,23.892,36.246,28.498 M170.109,11.394c-3-1.23-5.953-2.552-8.987-3.66
	c-15.097-4.621-20.586,1.367-20.772,1.268c-2.845-1.536-5.94-2.191-9.115-2.436c-3.024-0.23-6.065-0.271-9.196-0.398V4.528
	c-2.226,0.295-20.983,2.57-21.065,2.412C98.598,3.385,96.163,0,96.111,0c-0.98,1.812-5.892,8.472-7.415,11.216
	c-0.889-1.734-1.733-3.386-2.62-5.119c-3.765,1.188-7.508,2.37-11.301,3.566c-0.377-0.709-0.691-1.42-1.12-2.057
	C73.44,7.287,59.979,4.129,59.791,4.646c-0.877,2.398-2.782,7.349-2.955,7.428V4.485C55.266,4.688,34.377,7.267,34.27,7.11
	c-1.832-2.703-4.545-3.914-7.644-4.435c-3.995-0.67-7.983-0.327-11.958,0.204C9.688,3.547,4.85,4.858,0,6.11
	C-0.07,6.128,5.276,36.7,5.854,39.856c1.188-0.213,2.327-0.416,3.558-0.637c0.378,2.076,0.749,4.115,1.135,6.246
	c8.769-0.865,17.474-1.738,25.235-6.592c0.104,0.533,0.199,1.02,0.31,1.588c1.34-0.171,11.982-1.572,15.975-2.084
	c0.286-0.037,5.818,2.227,8.281,3.26c0.284,0.119,0.572,0.225,0.909,0.357c1.55-3.656,3.087-7.285,4.712-11.119
	c1.333,3.721,2.603,7.268,3.913,10.926c3.375-2.205,6.68-4.363,10.061-6.572c1.974,4.043,3.914,8.019,5.91,12.105
	c4.458-6.922,8.858-13.748,13.377-20.764c0.693,4.771,1.356,9.324,2.029,13.966c1.564-0.206,12.557-1.774,16.559-2.196
	c1.604-0.17,10.974,0.588,11.232,0.588c0.16-1.141,0.314-2.258,0.495-3.541c4.046,3.42,8.011,6.768,12.044,10.174
	c0.616-0.721,5.248-6.178,6.462-7.69c0.421-0.522,6.082,3.11,12.319,1.653c3.861-1.207,6.537-3.648,7.429-7.701
	c0.495-2.248-0.347-5.051-1.315-7.125C166.316,24.344,170.031,11.692,170.109,11.394"/>
</svg>
