<?xml version="1.0" encoding="utf-8"?>
<!-- Generator: Adobe Illustrator 15.0.2, SVG Export Plug-In . SVG Version: 6.00 Build 0)  -->
<!DOCTYPE svg PUBLIC "-//W3C//DTD SVG 1.1//EN" "http://www.w3.org/Graphics/SVG/1.1/DTD/svg11.dtd">
<svg version="1.1" id="Capa_1" xmlns="http://www.w3.org/2000/svg" xmlns:xlink="http://www.w3.org/1999/xlink" x="0px" y="0px"
	 width="73.404px" height="50px" viewBox="0 0 73.404 50" enable-background="new 0 0 73.404 50" xml:space="preserve">
<g>
	<path fill="#333333" d="M3.474,0.348C4.05,0.134,4.667,0,5.319,0h62.766c0.652,0,1.269,0.134,1.846,0.348L41.809,26.84
		c-2.863,2.699-7.349,2.699-10.213,0L3.474,0.348z M72.62,47.425c0.487-0.803,0.784-1.736,0.784-2.745V5.319
		c0-0.715-0.146-1.395-0.402-2.018L46.685,28.092L72.62,47.425z M44.305,30.298c-2.184,1.871-4.889,2.82-7.603,2.82
		s-5.419-0.948-7.604-2.82L3.237,49.576C3.877,49.848,4.58,50,5.319,50h62.766c0.739,0,1.441-0.152,2.082-0.424L44.305,30.298z
		 M0.402,3.301C0.146,3.924,0,4.604,0,5.319v39.361c0,1.008,0.297,1.941,0.784,2.745l25.935-19.333L0.402,3.301z"/>
</g>
</svg>
