<?xml version="1.0" encoding="utf-8"?>
<!-- Generator: Adobe Illustrator 15.0.2, SVG Export Plug-In . SVG Version: 6.00 Build 0)  -->
<!DOCTYPE svg PUBLIC "-//W3C//DTD SVG 1.1//EN" "http://www.w3.org/Graphics/SVG/1.1/DTD/svg11.dtd">
<svg version="1.1" id="Layer_1" xmlns="http://www.w3.org/2000/svg" xmlns:xlink="http://www.w3.org/1999/xlink" x="0px" y="0px"
	 width="114.183px" height="44.095px" viewBox="0 0 114.183 44.095" enable-background="new 0 0 114.183 44.095"
	 xml:space="preserve">
<path fill="#333333" d="M111.041,28.657l-4.605-5.775c-0.578-0.719-0.866-1.258-0.866-1.617c0-0.828,0.806-1.242,2.422-1.242h5.708
	v-8.526h-11.792c-3.086,0-4.88,0.974-6.459,2.914c-1.149,1.403-1.723,2.935-1.723,4.588c0,2.481,0.52,4.931,2.637,7.34l5.276,5.99
	c0.682,0.791,1.022,1.457,1.022,1.996c0,0.647-0.484,0.973-1.453,0.973h-9.263l-5.82,8.798h19.91c2.408,0,4.369-0.791,5.881-2.375
	c1.509-1.584,2.267-3.455,2.267-5.613C114.182,33.767,113.134,31.284,111.041,28.657 M77.304,31.679
	c-1.58,2.088-3.591,3.293-6.03,3.617V20.292h3.338c3.373,0,5.06,1.494,5.06,4.48C79.672,27.29,78.883,29.593,77.304,31.679
	 M87.317,15.327c-2.297-2.555-5.852-3.832-10.659-3.832h-5.384V0H60.938v44.093h10.66c5.023,0,9.384-1.988,13.082-5.965
	c3.694-3.975,5.544-8.68,5.544-14.111C90.224,20.382,89.255,17.485,87.317,15.327 M56.365,11.495H46.028v23.801h-1.131
	c-2.549,0-4.272-0.27-5.168-0.811c-1.328-0.754-1.992-2.32-1.992-4.695c0-2.266,0.628-5.342,1.884-9.229
	c0.108-0.25,1.219-3.273,3.337-9.066H32.353c-3.696,7.879-5.545,14.213-5.545,18.996c0,9.068,4.343,13.602,13.027,13.602h16.529
	V11.495z M22.771,35.323h-6.891c-3.731,0-5.943-1.641-5.943-4.973c0-3.084,1.476-5.451,3.629-7.424
	c1.938-1.757,4.108-2.636,6.515-2.636h3.282l4.314-8.797h-7.76c-5.777,0-10.543,1.854-14.293,5.56S0,25.347,0,30.815
	c0,4.174,1.112,7.395,3.337,9.66c2.37,2.412,5.832,3.617,10.392,3.617h12.034L22.771,35.323z"/>
</svg>
