<?xml version="1.0" encoding="utf-8"?>
<!-- Generator: Adobe Illustrator 15.0.2, SVG Export Plug-In . SVG Version: 6.00 Build 0)  -->
<!DOCTYPE svg PUBLIC "-//W3C//DTD SVG 1.1//EN" "http://www.w3.org/Graphics/SVG/1.1/DTD/svg11.dtd">
<svg version="1.1" id="Layer_1" xmlns="http://www.w3.org/2000/svg" xmlns:xlink="http://www.w3.org/1999/xlink" x="0px" y="0px"
	 width="100px" height="100px" viewBox="0 0 100 100" enable-background="new 0 0 100 100" xml:space="preserve">
<path fill="#5C2D91" d="M57.112,61.649h0.026H57.112z"/>
<g>
	<defs>
		<rect id="SVGID_1_" x="0.406" y="0.361" width="99.192" height="99.278"/>
	</defs>
	<clipPath id="SVGID_2_">
		<use xlink:href="#SVGID_1_"  overflow="visible"/>
	</clipPath>
	<path clip-path="url(#SVGID_2_)" fill="#FFFFFF" d="M49.979,70.938c-11.256,0-20.4-1.662-20.4-3.721
		c0-2.057,9.145-3.717,20.4-3.717c11.262,0,20.395,1.66,20.395,3.717C70.373,69.276,61.24,70.938,49.979,70.938"/>
	<path clip-path="url(#SVGID_2_)" fill="#FFFFFF" d="M49.979,73.597c-10.52,0-23.058-1.107-23.058-6.379
		c0-5.268,12.538-6.374,23.058-6.374c10.516,0,23.052,1.106,23.052,6.374C73.03,72.489,60.494,73.597,49.979,73.597 M35.952,67.22
		c3.116,0.571,7.852,1.062,14.026,1.062c6.172,0,10.909-0.49,14.023-1.062c-3.114-0.569-7.852-1.06-14.023-1.06
		C43.804,66.16,39.068,66.65,35.952,67.22"/>
	<path clip-path="url(#SVGID_2_)" fill="#FFFFFF" d="M66.56,71.631c-2.062,0.425-4.463,0.772-7.109,1.021l0.021-0.033
		c0.501,4.482,4.202,14.113,10.545,14.113c4.645,0,8.269-4.082,8.641-8.521c-5.45,2.593-11.002-0.104-12.129-6.597L66.56,71.631z"/>
	<path clip-path="url(#SVGID_2_)" fill="#FFFFFF" d="M40.454,72.651c-2.593-0.249-4.973-0.588-7.036-1l-0.017-0.059
		c-1.068,6.601-6.663,9.343-12.144,6.735c0.358,4.445,3.984,8.519,8.634,8.519c6.397,0,10.106-9.779,10.552-14.211L40.454,72.651z"
		/>
	<path clip-path="url(#SVGID_2_)" fill="#FFFFFF" d="M49.979,0.362c2.72,2.919,7.221,6.352,8.149,7.052
		c6.951,5.208,10.227,12.368,10.264,18.609c0.096,11.565-9.649,21.711-10.877,35.68c-1.979-0.229-3.147-0.319-5.344-0.34
		c0.248-14.163-1.231-33.354-2.192-47.21c-0.963,13.856-2.45,33.047-2.192,47.21c-2.189,0.021-3.355,0.111-5.337,0.34
		c-1.216-13.969-10.967-24.115-10.895-35.68c0.058-6.241,3.324-13.401,10.274-18.609C42.762,6.714,47.269,3.281,49.979,0.362"/>
	<path clip-path="url(#SVGID_2_)" fill="#FFFFFF" d="M49.979,99.64c4.676-2.06,9.463-6.088,12.238-10.481
		c0.451-0.714,0.85-1.441,1.186-2.169c-3.453-4.776-5.202-9.966-5.754-14.155c-2.007,0.139-3.17,0.232-5.364,0.232
		c-0.279,3.768-1.218,11.752-2.306,16.072c-1.098-4.32-2.026-12.305-2.294-16.072c-2.202,0-3.378-0.094-5.372-0.232
		c-0.542,4.189-2.302,9.379-5.745,14.155C38.953,92.187,44.55,97.246,49.979,99.64"/>
</g>
<g>
	<defs>
		<rect id="SVGID_3_" width="100" height="100"/>
	</defs>
	<clipPath id="SVGID_4_">
		<use xlink:href="#SVGID_3_"  overflow="visible"/>
	</clipPath>
	<path clip-path="url(#SVGID_4_)" fill="#FFFFFF" d="M16.744,31.376C5.997,31.362-1.423,41.608,0.8,51.771
		c1.487,6.804,7.682,12.776,15.058,11.751c-1.237-4.71,0.93-10.015,6.102-10.767c6.035-0.868,9.547,5.34,10.788,10.18
		c2.583-0.566,5.391-0.807,7.591-1.013l0.104-0.021C39.936,51.258,31.817,31.4,16.744,31.376 M15.601,47.062l-3.104,4.969
		l-0.961-5.375l-4.828-0.738l4.065-2.993l-0.167-4.874l4.045,2.725l4.692-1.863L17.412,43.4l4.048,3.663L15.601,47.062z"/>
	<path clip-path="url(#SVGID_4_)" fill="#FFFFFF" d="M83.262,31.399c-15.087,0.008-23.21,19.876-23.714,30.523l0.121,0.016
		c2.174,0.205,4.994,0.45,7.59,0.964c1.232-4.789,4.744-11.007,10.776-10.129c5.171,0.743,7.341,6.054,6.092,10.765
		c7.381,1.031,13.586-4.947,15.072-11.742C101.423,41.634,94.007,31.377,83.262,31.399 M88.464,46.657l-0.962,5.374l-3.104-4.968
		l-5.86,0.001l4.051-3.665l-1.932-4.486l4.689,1.863l4.047-2.725l-0.088,2.614l1.002-0.984l-1.002,0.984l-0.078,2.261l4.064,2.993
		L88.464,46.657z"/>
</g>
</svg>
