<?xml version="1.0" encoding="utf-8"?>
<!-- Generator: Adobe Illustrator 19.2.1, SVG Export Plug-In . SVG Version: 6.00 Build 0)  -->
<svg version="1.1" id="Layer_1" xmlns="http://www.w3.org/2000/svg" xmlns:xlink="http://www.w3.org/1999/xlink" x="0px" y="0px"
	 viewBox="0 0 51 49.8" style="enable-background:new 0 0 51 49.8;" xml:space="preserve">
<style type="text/css">
	.st0{fill:#5C2D91;}
	.st1{clip-path:url(#SVGID_2_);fill:#FFFFFF;}
	.st2{clip-path:url(#SVGID_4_);fill:#333333;}
	.st3{clip-path:url(#SVGID_6_);fill:#333333;}
	.st4{clip-path:url(#SVGID_8_);fill:#333333;}
	.st5{clip-path:url(#SVGID_10_);fill:#333333;}
	.st6{clip-path:url(#SVGID_12_);fill:#333333;}
	.st7{clip-path:url(#SVGID_14_);fill:#333333;}
	.st8{clip-path:url(#SVGID_16_);fill:#333333;}
</style>
<path class="st0" d="M29.6,30.8L29.6,30.8L29.6,30.8z"/>
<g>
	<g>
		<defs>
			<rect id="SVGID_1_" x="1.2" y="0.2" width="49.6" height="49.6"/>
		</defs>
		<clipPath id="SVGID_2_">
			<use xlink:href="#SVGID_1_"  style="overflow:visible;"/>
		</clipPath>
		<path class="st1" d="M26,35.5c-5.6,0-10.2-0.8-10.2-1.9c0-1,4.6-1.9,10.2-1.9c5.6,0,10.2,0.8,10.2,1.9
			C36.2,34.6,31.6,35.5,26,35.5"/>
	</g>
	<g>
		<defs>
			<rect id="SVGID_3_" x="1.2" y="0.2" width="49.6" height="49.6"/>
		</defs>
		<clipPath id="SVGID_4_">
			<use xlink:href="#SVGID_3_"  style="overflow:visible;"/>
		</clipPath>
		<path class="st2" d="M26,36.8c-5.3,0-11.5-0.6-11.5-3.2c0-2.6,6.3-3.2,11.5-3.2c5.3,0,11.5,0.6,11.5,3.2
			C37.5,36.2,31.2,36.8,26,36.8 M19,33.6c1.6,0.3,3.9,0.5,7,0.5c3.1,0,5.5-0.2,7-0.5c-1.6-0.3-3.9-0.5-7-0.5
			C22.9,33.1,20.5,33.3,19,33.6"/>
	</g>
	<g>
		<defs>
			<rect id="SVGID_5_" x="1.2" y="0.2" width="49.6" height="49.6"/>
		</defs>
		<clipPath id="SVGID_6_">
			<use xlink:href="#SVGID_5_"  style="overflow:visible;"/>
		</clipPath>
		<path class="st3" d="M34.3,35.8c-1,0.2-2.2,0.4-3.6,0.5l0,0c0.3,2.2,2.1,7.1,5.3,7.1c2.3,0,4.1-2,4.3-4.3
			C37.6,40.4,34.8,39.1,34.3,35.8L34.3,35.8z"/>
	</g>
	<g>
		<defs>
			<rect id="SVGID_7_" x="1.2" y="0.2" width="49.6" height="49.6"/>
		</defs>
		<clipPath id="SVGID_8_">
			<use xlink:href="#SVGID_7_"  style="overflow:visible;"/>
		</clipPath>
		<path class="st4" d="M21.2,36.3c-1.3-0.1-2.5-0.3-3.5-0.5l0,0c-0.5,3.3-3.3,4.7-6.1,3.4c0.2,2.2,2,4.3,4.3,4.3
			C19.1,43.4,21,38.5,21.2,36.3L21.2,36.3z"/>
	</g>
	<g>
		<defs>
			<rect id="SVGID_9_" x="1.2" y="0.2" width="49.6" height="49.6"/>
		</defs>
		<clipPath id="SVGID_10_">
			<use xlink:href="#SVGID_9_"  style="overflow:visible;"/>
		</clipPath>
		<path class="st5" d="M26,0.2c1.4,1.5,3.6,3.2,4.1,3.5c3.5,2.6,5.1,6.2,5.1,9.3c0,5.8-4.8,10.9-5.4,17.8c-1-0.1-1.6-0.2-2.7-0.2
			C27.2,23.6,26.5,14,26,7.1c-0.5,6.9-1.2,16.5-1.1,23.6c-1.1,0-1.7,0.1-2.7,0.2c-0.6-7-5.5-12.1-5.4-17.8c0-3.1,1.7-6.7,5.1-9.3
			C22.4,3.4,24.6,1.6,26,0.2"/>
	</g>
	<g>
		<defs>
			<rect id="SVGID_11_" x="1.2" y="0.2" width="49.6" height="49.6"/>
		</defs>
		<clipPath id="SVGID_12_">
			<use xlink:href="#SVGID_11_"  style="overflow:visible;"/>
		</clipPath>
		<path class="st6" d="M26,49.8c2.3-1,4.7-3,6.1-5.2c0.2-0.4,0.4-0.7,0.6-1.1c-1.7-2.4-2.6-5-2.9-7.1c-1,0.1-1.6,0.1-2.7,0.1
			c-0.1,1.9-0.6,5.9-1.2,8c-0.5-2.2-1-6.2-1.1-8c-1.1,0-1.7,0-2.7-0.1c-0.3,2.1-1.2,4.7-2.9,7.1C20.5,46.1,23.3,48.6,26,49.8"/>
	</g>
</g>
<g>
	<g>
		<defs>
			<rect id="SVGID_13_" x="1" y="0" width="50" height="50"/>
		</defs>
		<clipPath id="SVGID_14_">
			<use xlink:href="#SVGID_13_"  style="overflow:visible;"/>
		</clipPath>
		<path class="st7" d="M9.4,15.7c-5.4,0-9.1,5.1-8,10.2c0.7,3.4,3.8,6.4,7.5,5.9c-0.6-2.4,0.5-5,3.1-5.4c3-0.4,4.8,2.7,5.4,5.1
			c1.3-0.3,2.7-0.4,3.8-0.5l0.1,0C21,25.6,16.9,15.7,9.4,15.7 M8.8,23.5L7.2,26l-0.5-2.7L4.4,23l2-1.5L6.3,19l2,1.4l2.3-0.9l-1,2.2
			l2,1.8L8.8,23.5z"/>
	</g>
	<g>
		<defs>
			<rect id="SVGID_15_" x="1" y="0" width="50" height="50"/>
		</defs>
		<clipPath id="SVGID_16_">
			<use xlink:href="#SVGID_15_"  style="overflow:visible;"/>
		</clipPath>
		<path class="st8" d="M42.6,15.7c-7.5,0-11.6,9.9-11.9,15.3l0.1,0c1.1,0.1,2.5,0.2,3.8,0.5c0.6-2.4,2.4-5.5,5.4-5.1
			c2.6,0.4,3.7,3,3,5.4c3.7,0.5,6.8-2.5,7.5-5.9C51.7,20.8,48,15.7,42.6,15.7 M45.2,23.3L44.8,26l-1.6-2.5l-2.9,0l2-1.8l-1-2.2
			l2.3,0.9l2-1.4l0,1.3l0.5-0.5l-0.5,0.5l0,1.1l2,1.5L45.2,23.3z"/>
	</g>
</g>
</svg>
