<?xml version="1.0" encoding="utf-8"?>
<!-- Generator: Adobe Illustrator 19.2.1, SVG Export Plug-In . SVG Version: 6.00 Build 0)  -->
<svg version="1.1" id="Capa_1" xmlns="http://www.w3.org/2000/svg" xmlns:xlink="http://www.w3.org/1999/xlink" x="0px" y="0px"
	 viewBox="0 0 60 53.5" style="enable-background:new 0 0 60 53.5;" xml:space="preserve">
<style type="text/css">
	.st0{fill:#333333;}
</style>
<g>
	<g>
		<path class="st0" d="M2.1,31.9H7v19.5c0,1.2,0.9,2.1,2.1,2.1h14.3c1.2,0,2.1-0.9,2.1-2.1V37.1h8.7v14.3c0,1.2,0.9,2.1,2.1,2.1
			h13.6c1.2,0,2.1-0.9,2.1-2.1V31.9h5.9c0.8,0,1.6-0.5,1.9-1.3c0.3-0.8,0.1-1.7-0.5-2.3L32.1,0.6c-0.8-0.8-2.1-0.8-2.9,0L0.6,28.3
			c-0.6,0.6-0.8,1.5-0.5,2.3C0.5,31.4,1.2,31.9,2.1,31.9z M30.6,5.1l22.3,22.6h-3c-1.2,0-2.1,0.9-2.1,2.1v19.5h-9.4V35
			c0-1.2-0.9-2.1-2.1-2.1H23.4c-1.2,0-2.1,0.9-2.1,2.1v14.3H11.1V29.8c0-1.2-0.9-2.1-2.1-2.1H7.2L30.6,5.1z"/>
	</g>
</g>
</svg>
