<?xml version="1.0" encoding="utf-8"?>
<!-- Generator: Adobe Illustrator 15.0.2, SVG Export Plug-In . SVG Version: 6.00 Build 0)  -->
<!DOCTYPE svg PUBLIC "-//W3C//DTD SVG 1.1//EN" "http://www.w3.org/Graphics/SVG/1.1/DTD/svg11.dtd">
<svg version="1.1" id="Capa_1" xmlns="http://www.w3.org/2000/svg" xmlns:xlink="http://www.w3.org/1999/xlink" x="0px" y="0px"
	 width="50px" height="50px" viewBox="0 0 50 50" enable-background="new 0 0 50 50" xml:space="preserve">
<g>
	<g>
		<path fill="#333333" d="M25,0C11.215,0,0,11.215,0,25s11.215,25,25,25s25-11.215,25-25S38.785,0,25,0z M25,42.727
			c-9.774,0-17.727-7.952-17.727-17.727S15.226,7.273,25,7.273c9.775,0,17.728,7.952,17.728,17.727S34.775,42.727,25,42.727z"/>
		<path fill="#333333" d="M32.521,13.588c-0.223-0.146-0.481-0.224-0.748-0.224c-0.384,0-0.752,0.164-1.01,0.449l-8.335,9.248
			c-0.091,0.102-0.167,0.216-0.224,0.341l-5.21,11.307c-0.283,0.614-0.079,1.331,0.486,1.704c0.223,0.146,0.481,0.224,0.748,0.224
			c0.384,0,0.752-0.164,1.01-0.449l8.335-9.248c0.091-0.102,0.167-0.216,0.225-0.341l5.21-11.307
			C33.291,14.677,33.086,13.96,32.521,13.588z"/>
	</g>
</g>
</svg>
