<?xml version="1.0" encoding="utf-8"?>
<!-- Generator: Adobe Illustrator 15.0.2, SVG Export Plug-In . SVG Version: 6.00 Build 0)  -->
<!DOCTYPE svg PUBLIC "-//W3C//DTD SVG 1.1//EN" "http://www.w3.org/Graphics/SVG/1.1/DTD/svg11.dtd">
<svg version="1.1" id="Layer_1" xmlns="http://www.w3.org/2000/svg" xmlns:xlink="http://www.w3.org/1999/xlink" x="0px" y="0px"
	 width="38.924px" height="50px" viewBox="0 0 38.924 50" enable-background="new 0 0 38.924 50" xml:space="preserve">
<g>
	<path fill="#333333" d="M0.021,45.576c0,1.758,0.693,2.785,1.276,3.339C2.36,49.922,3.69,50,4.042,50
		c0.045,0,0.075-0.002,0.083-0.002h30.377c1.598,0,2.588-0.658,3.137-1.21c1.262-1.271,1.287-3.028,1.285-3.212v-35.39
		c0-0.208-0.042-0.412-0.122-0.606c-0.081-0.195-0.197-0.371-0.345-0.517L29.86,0.466c-0.146-0.147-0.322-0.264-0.518-0.344
		C29.148,0.041,28.942,0,28.737,0H4.125C2.532,0,1.586,0.695,1.073,1.278c-1.174,1.334-1.099,3.2-1.052,3.724V45.576L0.021,45.576z
		 M27.941,3.175h0.136l7.287,7.286l-5.857,0.001c-0.003,0.01-0.675,0.01-1.112-0.407c-0.303-0.286-0.454-0.776-0.454-1.457V3.175z
		 M3.458,3.375c0.043-0.049,0.175-0.2,0.667-0.2h20.642V8.6c0,1.974,0.783,3.133,1.439,3.758c1.25,1.189,2.848,1.281,3.278,1.281
		c0.054,0,0.089-0.001,0.104-0.002h6.161v31.929c-0.027,1.257-0.946,1.257-1.247,1.257L4.042,46.824
		c-0.005,0-0.356-0.023-0.56-0.215c-0.248-0.235-0.284-0.749-0.284-1.033V4.921c0-0.068-0.005-0.136-0.014-0.204
		C3.151,4.452,3.18,3.69,3.458,3.375L3.458,3.375z"/>
</g>
</svg>
