<?xml version="1.0" encoding="utf-8"?>
<!-- Generator: Adobe Illustrator 15.0.2, SVG Export Plug-In . SVG Version: 6.00 Build 0)  -->
<!DOCTYPE svg PUBLIC "-//W3C//DTD SVG 1.1//EN" "http://www.w3.org/Graphics/SVG/1.1/DTD/svg11.dtd">
<svg version="1.1" id="Layer_1" xmlns="http://www.w3.org/2000/svg" xmlns:xlink="http://www.w3.org/1999/xlink" x="0px" y="0px"
	 width="526.182px" height="325.553px" viewBox="0 0 526.182 325.553" enable-background="new 0 0 526.182 325.553"
	 xml:space="preserve">
<g>
	<path fill="#FFFFFF" d="M156.961,152.012c1.785-8.363-2.604-8.363-11.493-8.363c-8.896,0-15.003,0-16.946,9.161
		c-1.473,6.903,0.333,7.174,14.796,7.83c16.289,0.797,31.151-0.395,26.351,22.174c-4.005,18.854-19.271,20.709-36.925,20.709
		c-18.985,0-31.731,0-26.904-22.697h16.725c-1.876,10.084,0.26,11.283,12.603,11.283c9.954,0,15.745,0.271,17.774-9.295
		c1.294-6.105,1.55-9.163-15.256-9.427c-25.542-0.397-29.45-3.848-25.669-21.641c4.062-19.116,17.957-19.51,35.878-19.51
		c13.674,0,29.946,0.261,25.796,19.775H156.961L156.961,152.012z"/>
	<path fill="#FFFFFF" d="M242.111,176.176c-4.857,22.838-14.048,27.349-37.544,27.349c-25.625,0-29.623-7.431-23.634-35.574
		c5.192-24.43,11.437-35.712,38.789-35.712c20.709,0,31.055,3.185,26.364,25.218h-16.728c2.261-10.619-0.662-12.479-12.351-12.479
		c-14.338,0-15.542,5.045-19.354,22.974c-3.693,17.389-5.113,22.828,9.615,22.828c13.68,0,15.513-2.387,18.111-14.603H242.111
		L242.111,176.176z"/>
	<path fill="#FFFFFF" d="M289.9,144.975c14.875,0,15.162,4.248,11.151,23.106c-3.948,18.585-6.015,22.695-20.886,22.695
		c-14.866,0-15.191-4.11-11.237-22.695C272.934,149.223,275.031,144.975,289.9,144.975z M292.608,132.237
		c-29.075,0-34.628,8.624-40.384,35.712c-5.729,26.951-3.843,35.574,25.229,35.574c29.077,0,34.626-8.623,40.359-35.574
		C323.571,140.861,321.69,132.237,292.608,132.237z"/>
	<path fill="#FFFFFF" d="M405.556,133.025h8.768l3.354-15.795h16.727l-3.352,15.795h26.671l-2.703,12.747h-26.684l-7.586,35.715
		c-1.227,6.37-1.848,9.29,5.185,9.29c7.387,0,9.291-4.439,10.525-9.928c0.01-0.005,14.629,0.016,14.637,0
		c-4.299,17.372-11.232,22.674-27.865,22.674c-18.323,0-22.996-4.245-19.246-21.904l7.616-35.847h-8.755L405.556,133.025z"/>
	<path fill="#FFFFFF" d="M508.789,152.012c1.771-8.363-2.607-8.363-11.503-8.363c-8.891,0-15.001,0-16.944,9.161
		c-1.475,6.903,0.334,7.174,14.796,7.83c16.299,0.797,31.151-0.395,26.35,22.174c-4.009,18.854-19.267,20.709-36.924,20.709
		c-18.986,0-31.731,0-26.904-22.697h16.727c-1.883,10.084,0.265,11.283,12.596,11.283c9.969,0,15.755,0.271,17.777-9.295
		c1.297-6.105,1.552-9.163-15.243-9.427c-25.537-0.397-29.455-3.848-25.678-21.641c4.065-19.116,17.961-19.51,35.877-19.51
		c13.674,0,29.952,0.261,25.81,19.775H508.789L508.789,152.012z"/>
	<path fill="#FFFFFF" d="M397.455,133.025h-16.725l-7.519,35.396c-3.952,18.58-3.729,22.695-18.601,22.695
		c-14.864,0-14.152-4.115-10.2-22.695l7.644-35.396h-16.73l-7.562,35.397c-5.725,26.949-4.933,35.443,24.144,35.443
		c29.075,0,32.374-8.632,38.111-35.584L397.455,133.025z"/>
</g>
<path fill="#FFFFFF" d="M208.528,325.552C58.151,325.552,0,265.452,0,204.165C0,139.446,62.518,86.973,180.489,55.114
	C64.62,97.341,27.536,149.35,27.536,199.512c0,58.829,54.103,112.382,189.107,112.382c93.338,0,172.887-10.446,261.208-44.789
	C397.936,306.844,303.715,325.552,208.528,325.552z"/>
<g>
	<path fill="#FFFFFF" d="M401.846,236.696c-5.023,0-6.808,2.227-7.787,6.887c-0.837,3.964,0.44,6.856,4.861,6.856
		c4.986,0,6.805-2.255,7.773-6.856C407.675,238.936,406.837,236.696,401.846,236.696z"/>
	<path fill="#FFFFFF" d="M452.366,236.696c-5.022,0-6.805,2.227-7.788,6.887c-0.834,3.964,0.442,6.856,4.863,6.856
		c4.988,0,6.804-2.255,7.774-6.856C458.196,238.936,457.359,236.696,452.366,236.696z"/>
	<path fill="#FFFFFF" d="M502.953,236.696c-5.022,0-6.806,2.227-7.787,6.887c-0.836,3.964,0.441,6.856,4.862,6.856
		c4.987,0,6.803-2.255,7.774-6.856C508.782,238.936,507.946,236.696,502.953,236.696z"/>
</g>
<g>
	<path fill="#FFFFFF" d="M289.071,30.768c-11.902,0-26.33,15.259-30.715,32.004h-3.346c4.725-21.472,17.695-31.51,17.695-41.399
		c0-9.794-4.86-15.521-11.418-21.373c-15.232,9.435-21.3,15.28-21.3,27.399c0,5.805,2.154,16.528,2.154,22.858
		c0,3.235-0.122,7.747-0.817,12.515h-3.236c0.215-2.026,0.325-4.146,0.325-6.326c0-15.311-4.874-25.679-17.145-25.679
		c-9.058,0-17.631,6.733-17.631,16.771c0,8.015,4.716,14.074,12.802,16.282c0.748-6.704,4.993-9.058,9.021-9.058
		c4.808,0,7.067,3.172,7.59,8.048c-3.974,0.23-5.345,1.516-5.345,3.742c0,2.01,1.579,3.116,4.635,3.143
		c-1.155,3.192-3.479,6.028-6.731,6.028c-1.833,0-2.79-0.319-4.154-1.123c-0.524,0.673-0.861,1.939-0.861,2.845
		c0,3.089,2.612,4.604,5.166,4.604c5.316,0,9.099-4.975,11.075-12.353h3.124c-2.203,9.062-5.72,16.45-9.518,21.411
		c3.093,1.266,6.41,2.06,11.643,2.06c4.517,0,8.784-0.437,12.502-2.06c-1.16-3.968-1.272-8.097-1.272-12.166
		c0-3.278,0.189-6.354,0.531-9.245h3.306c-0.081,0.976-0.123,1.949-0.123,2.918c0,7.521,3.984,9.434,6.625,9.434
		c4.718,0,7.638-3.557,7.638-6.213c0-0.45-0.021-0.868-0.15-1.235c-1.191,0.646-2.411,1.123-4.416,1.123
		c-3.59,0-4.528-2.567-4.528-5.503c0-0.19,0.003-0.384,0.015-0.58c3.886-0.223,5.936-1.169,5.936-3.986
		c0-2.039-1.163-2.758-3.925-2.866c2.266-4.292,6.325-8.025,11.674-8.025c3.554,0,4.94,2.659,4.94,4.492
		c0,1.555-0.387,3.305-0.898,4.565c14.179-2.062,22.16-10.138,22.16-20.438C302.098,36.829,297.866,30.768,289.071,30.768z
		 M222.505,44.918l0.861,6.399l-4.68-3.967l-6.588,4.155l3.668-6.625l-4.604-3.894h6.737l3.258-5.953l0.822,5.953h6.738
		L222.505,44.918z M243.021,88.226l0.673-18.528h6.552L243.021,88.226z M251.367,62.772h-6.551l13.701-49.373L251.367,62.772z
		 M291.205,51.317l-4.68-3.967l-6.589,4.155l3.67-6.625L279,40.987h6.739l3.257-5.953l0.824,5.953h6.737l-6.215,3.931
		L291.205,51.317z"/>
</g>
<path fill="#FFFFFF" d="M360.08,233.168l-2.374,10.935c-1.128,0.7-2.529,1.4-3.893,1.4c-2.566,0-3.695-1.635-3.695-4.048
	c0-3.969,2.335-8.871,6.888-8.871C357.939,232.584,359.185,232.855,360.08,233.168z M369.691,220.403h-6.888l-1.751,8.25
	c-1.712-0.429-3.386-0.584-5.137-0.584c-7.666,0-12.919,6.811-12.919,14.125c0,4.319,1.983,8.366,6.81,8.366
	c3.152,0,4.708-0.935,7.121-2.802l-0.467,2.218h6.887L369.691,220.403z M292.801,229.392c-3.697-0.934-6.654-1.322-10.429-1.322
	c-7.783,0-14.125,6.148-14.125,14.009c0,4.279,1.983,8.482,6.849,8.482c2.879,0,4.747-1.168,7.004-2.802l-0.506,2.218h6.849
	L292.801,229.392z M264.511,237.525c0-6.81-3.774-9.455-10.351-9.455c-3.386,0-6.771,0.584-10.078,1.322l-6.148,28.406h6.888
	l1.868-8.64c1.439,0.856,3.502,1.245,5.138,1.245C259.18,250.404,264.511,244.802,264.511,237.525z M212.252,228.653
	c-0.622-0.039-0.974-0.078-1.595-0.078c-2.88,0-5.448,1.558-7.705,3.19l0.662-3.112h-6.889l-4.553,21.323h6.849l3.074-14.28
	c1.673-0.584,3.385-0.855,5.175-0.855c1.167,0,2.219,0.116,2.958,0.312h0.583L212.252,228.653z M189.8,237.525
	c0-6.81-3.774-9.455-10.351-9.455c-3.425,0-6.811,0.584-10.117,1.322l-6.109,28.406h6.85l1.867-8.64
	c1.44,0.856,3.502,1.245,5.176,1.245C184.43,250.404,189.8,244.802,189.8,237.525z M145.09,235.774c0-6.031-4.475-7.782-9.729-7.782
	c-7.898,0-13.696,5.138-13.696,13.191c0,6.887,5.37,9.378,11.518,9.378c3.074,0,6.07-0.545,8.911-1.79l1.128-5.486h-0.739
	c-2.412,1.479-4.863,2.451-7.705,2.451c-3.307,0-6.42-1.09-6.42-4.941v-0.233h15.876C144.701,239.043,145.09,237.37,145.09,235.774z
	 M117.773,236.474c0-5.058-2.958-8.404-8.133-8.404c-1.829,0-3.658,0.271-5.409,0.817l1.829-8.483h-6.887l-6.343,29.573h6.576
	l0.428-1.557c1.868,1.596,3.386,1.983,5.798,1.983C113.221,250.404,117.773,243.518,117.773,236.474z M285.252,232.817
	l-2.335,11.285c-1.129,0.661-2.607,1.4-3.931,1.4c-2.841,0-3.657-1.597-3.657-4.241c0-4.241,2.763-8.794,7.393-8.794
	C283.578,232.468,284.395,232.662,285.252,232.817z M257.352,237.719c0,4.203-2.062,8.172-6.731,8.172
	c-1.013,0-2.18-0.155-3.074-0.544l2.568-12.492c1.012-0.192,2.062-0.35,3.073-0.35C256.184,232.506,257.352,235.073,257.352,237.719
	z M182.601,237.719c0,4.203-2.022,8.172-6.731,8.172c-0.974,0-2.141-0.155-3.074-0.544l2.606-12.492
	c0.974-0.192,2.023-0.35,3.074-0.35C181.473,232.506,182.601,235.073,182.601,237.719z M138.281,235.385
	c0,0.428-0.039,0.739-0.078,1.167h-9.223c0.856-2.567,2.879-4.319,5.682-4.319C136.685,232.233,138.202,233.206,138.281,235.385z
	 M110.574,237.564c0,4.319-1.984,8.094-6.771,8.094c-1.051,0-2.022-0.545-2.918-1.051l2.413-11.518
	c1.051-0.352,2.179-0.506,3.269-0.506C109.758,232.584,110.574,234.685,110.574,237.564z M237,235.774
	c0-6.031-4.476-7.782-9.729-7.782c-7.898,0-13.696,5.138-13.696,13.191c0,6.887,5.369,9.378,11.479,9.378
	c3.074,0,6.07-0.545,8.911-1.79l1.167-5.486h-0.778c-2.374,1.479-4.825,2.451-7.666,2.451c-3.346,0-6.459-1.09-6.459-4.941v-0.233
	h15.915C236.611,239.043,237,237.37,237,235.774z M230.152,235.385c0.039,0.428,0,0.739-0.077,1.167h-9.184
	c0.817-2.567,2.84-4.319,5.643-4.319C228.595,232.233,230.113,233.206,230.152,235.385z M339.105,235.774
	c0-6.031-4.475-7.782-9.728-7.782c-7.899,0-13.697,5.138-13.697,13.191c0,6.887,5.37,9.378,11.519,9.378
	c3.073,0,6.069-0.545,8.871-1.79l1.169-5.486h-0.74c-2.412,1.479-4.863,2.451-7.704,2.451c-3.346,0-6.42-1.09-6.42-4.941v-0.233
	h15.876C338.756,239.043,339.105,237.37,339.105,235.774z M332.297,235.385c0,0.428-0.039,0.739-0.117,1.167h-9.184
	c0.855-2.567,2.88-4.319,5.682-4.319C330.7,232.233,332.218,233.206,332.297,235.385z M314.357,228.653
	c-0.583-0.039-0.934-0.078-1.595-0.078c-2.841,0-5.448,1.558-7.666,3.19l0.622-3.112h-6.887l-4.554,21.323h6.85l3.073-14.28
	c1.713-0.584,3.425-0.855,5.215-0.855c1.129,0,2.179,0.116,2.918,0.312h0.623L314.357,228.653z"/>
</svg>
