<?xml version="1.0" encoding="utf-8"?>
<!-- Generator: Adobe Illustrator 15.0.2, SVG Export Plug-In . SVG Version: 6.00 Build 0)  -->
<!DOCTYPE svg PUBLIC "-//W3C//DTD SVG 1.1//EN" "http://www.w3.org/Graphics/SVG/1.1/DTD/svg11.dtd">
<svg version="1.1" id="Layer_1" xmlns="http://www.w3.org/2000/svg" xmlns:xlink="http://www.w3.org/1999/xlink" x="0px" y="0px"
	 width="187.736px" height="34.063px" viewBox="0 0 187.736 34.063" enable-background="new 0 0 187.736 34.063"
	 xml:space="preserve">
<path fill="#333333" d="M173.378,34.061c8.317,0,14.358-4.187,14.358-10.943c0-6.824-5.065-9.205-11.63-10.236
	c-3.249-0.516-5.847-0.321-5.847-1.803c0-0.771,0.845-1.352,2.794-1.352c2.145,0,4.483,0.901,7.017,2.061
	c1.171,0.644,1.755,0.322,2.209-0.387l3.443-6.051c0.389-0.773,0.195-1.48-0.389-1.804c-3.771-2.125-7.537-2.961-12.347-2.961
	c-7.276,0-13.903,4.056-13.903,10.621c0,7.019,5.196,9.785,12.93,10.879c3.312,0.451,4.353,0.773,4.353,1.738
	c0,0.967-1.301,1.416-3.054,1.416c-2.793,0-6.236-1.158-8.966-2.768c-1.17-0.709-1.755-0.517-2.209,0.192l-3.118,5.729
	c-0.39,0.772-0.39,1.352,0.39,1.803C163.048,32.645,168.311,34.061,173.378,34.061"/>
<path fill="#333333" d="M14.87,34.061c8.462,0,14.609-4.258,14.609-11.135c0-6.943-5.156-9.367-11.833-10.414
	c-3.305-0.525-5.949-0.328-5.949-1.836c0-0.785,0.859-1.375,2.843-1.375c2.182,0,4.561,0.918,7.14,2.096
	c1.189,0.656,1.784,0.328,2.247-0.394l3.505-6.155c0.396-0.787,0.198-1.509-0.397-1.834C23.2,0.852,19.365,0,14.473,0
	C7.069,0,0.327,4.127,0.327,10.809c0,7.139,5.288,9.955,13.154,11.067c3.372,0.459,4.431,0.785,4.431,1.771
	c0,0.981-1.322,1.438-3.107,1.438c-2.843,0-6.347-1.178-9.123-2.815c-1.19-0.719-1.786-0.523-2.249,0.197L0.26,28.295
	c-0.396,0.787-0.396,1.377,0.396,1.836C4.357,32.62,9.714,34.061,14.87,34.061"/>
<path fill="#333333" d="M115.993,34.061l-6.729-0.174c-6.381,0-11.577-4.302-11.577-12.839V2.151c0-1.043,0.396-1.498,1.446-1.498
	h8.091c1.051,0,1.446,0.455,1.446,1.498v14.857c0,2.868,1.033,5.665,4.058,5.665c2.828,0,3.865-2.625,3.865-5.491V2.325
	c0-1.043,0.396-1.498,1.447-1.498h8.09c1.053,0,1.447,0.455,1.447,1.498v18.898c0,8.537-5.196,12.838-11.577,12.838 M47.73,22.874
	c-3.354,0-5.787-2.67-5.787-5.994c0-3.323,2.434-5.864,5.787-5.864c1.776,0,2.896,0.586,4.014,1.629
	c1.052,1.043,1.906,0.979,3.024,0.131l6.577-4.889c0.396-0.324,0.658-1.043,0.197-1.562c-3.814-4.693-9.077-6.322-13.812-6.322
	c-9.536,0-17.298,6.519-17.298,16.943s7.762,16.943,17.298,16.943c4.735,0,9.998-1.629,13.812-6.32
	c0.461-0.521,0.198-1.238-0.197-1.564l-6.577-4.887c-1.118-0.848-1.973-0.912-3.024,0.131C50.626,22.288,49.507,22.874,47.73,22.874
	 M78.446,0.001c-9.536,0-17.298,6.519-17.298,16.943s7.762,16.943,17.298,16.943c9.537,0,17.3-6.519,17.3-16.943
	S87.983,0.001,78.446,0.001 M78.446,22.874c-3.354,0-5.787-2.604-5.787-5.93c0-3.322,2.433-5.93,5.787-5.93s5.788,2.606,5.788,5.93
	C84.234,20.269,81.801,22.874,78.446,22.874 M134.981,0.653H131.1c-1.118,0-1.513,0.391-1.513,1.434v8.017
	c0,1.043,0.461,1.434,1.513,1.434h5.545c1.055,0,1.316,0.262,1.316,1.303v19.724c0,1.043,0.394,1.5,1.447,1.5h8.09
	c1.052,0,1.445-0.457,1.445-1.5V12.839c0-1.041,0.266-1.303,1.317-1.303h5.504c1.052,0,1.513-0.391,1.513-1.434V2.086
	c0-1.043-0.461-1.434-1.513-1.434h-7.169"/>
</svg>
