<?xml version="1.0" encoding="utf-8"?>
<!-- Generator: Adobe Illustrator 15.0.2, SVG Export Plug-In . SVG Version: 6.00 Build 0)  -->
<!DOCTYPE svg PUBLIC "-//W3C//DTD SVG 1.1//EN" "http://www.w3.org/Graphics/SVG/1.1/DTD/svg11.dtd">
<svg version="1.1" id="Capa_1" xmlns="http://www.w3.org/2000/svg" xmlns:xlink="http://www.w3.org/1999/xlink" x="0px" y="0px"
	 width="60.841px" height="50px" viewBox="0.5 600.5 60.841 50" enable-background="new 0.5 600.5 60.841 50" xml:space="preserve">
<g>
	<path fill="#333333" d="M62.662,644.996H57.35c0.418,0.574,0.675,1.281,0.675,2.043c0,1.91-1.558,3.461-3.455,3.461
		c-1.917,0-3.461-1.555-3.461-3.461c0-0.758,0.244-1.473,0.675-2.043h-3.893c0.006,0.086,0.013,0.172,0.013,0.258
		c0,2.898-2.342,5.246-5.237,5.246s-5.243-2.348-5.243-5.246c0-0.086,0.013-0.175,0.013-0.258h-1.93
		c0.013,0.086,0.013,0.172,0.013,0.258c0,2.898-2.345,5.246-5.233,5.246c-2.898,0-5.243-2.348-5.243-5.246
		c0-0.086,0.01-0.175,0.013-0.258h-1.93c0,0.086,0.013,0.172,0.013,0.258c0,2.898-2.348,5.246-5.243,5.246
		c-2.892,0-5.233-2.348-5.233-5.246c0-0.086,0.01-0.175,0.013-0.258H9c0.418,0.574,0.672,1.281,0.672,2.043
		c0,1.91-1.542,3.461-3.455,3.461c-1.914,0-3.455-1.548-3.455-3.455c0-0.758,0.25-1.473,0.675-2.042H0.5v-2.141h3.336v-3.923h3.382
		l-3.577-5.832l3.646-5.719h4.693l-0.382-3.823h-0.382v-4.044h2.055c-0.053-0.115-0.099-0.221-0.152-0.354
		c-0.952-2.509,0.119-4.409,0.234-5.721c0.119-1.311,2.144-3.217,3.695-4.172c1.548-0.949-1.192-2.135,2.138-6.538
		c3.336-4.417,7.747-1.073,9.41-0.243c1.66,0.836,2.019,1.906,5.711,1.182c3.699-0.715,4.644-1.07,7.153,0.844
		c2.497,1.903,4.17-0.722,6.067-0.722c1.904,0,7.032,2.625,5.243,8.099c-1.782,5.477-6.188,2.978-6.669,2.978
		c-0.471,0-0.346-2.858-4.4-0.718c-4.048,2.134-5.596,1.07-7.493,0.23c-1.914-0.84-1.189-2.737-7.022,0
		c-5.853,2.756-5.731-0.827-8.234,0.372c-1.663,0.787-2.589,3.224-3.02,4.759h1.238v4.048h-0.553l-0.448,3.817h8.494v-1.907h17.979
		v1.907h2.025v-1.907h16.672v2.858H52.89v5.834h4.644v8.694h5.128h0.006V645L62.662,644.996L62.662,644.996z"/>
</g>
</svg>
