<?xml version="1.0" encoding="utf-8"?>
<!-- Generator: Adobe Illustrator 15.0.2, SVG Export Plug-In . SVG Version: 6.00 Build 0)  -->
<!DOCTYPE svg PUBLIC "-//W3C//DTD SVG 1.1//EN" "http://www.w3.org/Graphics/SVG/1.1/DTD/svg11.dtd">
<svg version="1.1" id="Layer_1" xmlns="http://www.w3.org/2000/svg" xmlns:xlink="http://www.w3.org/1999/xlink" x="0px" y="0px"
	 width="74px" height="74px" viewBox="0 0 74 74" enable-background="new 0 0 74 74" xml:space="preserve">
<rect fill="#29A7DF" width="74" height="74"/>
<path fill="#FFFFFF" d="M61.666,21.7c-1.815,0.806-3.767,1.35-5.813,1.594c2.09-1.253,3.697-3.235,4.45-5.599
	c-1.953,1.16-4.118,2.003-6.425,2.457c-1.848-1.968-4.479-3.197-7.389-3.197c-5.59,0-10.122,4.532-10.122,10.121
	c0,0.795,0.09,1.565,0.262,2.306c-8.411-0.421-15.868-4.45-20.861-10.576c-0.87,1.498-1.369,3.235-1.369,5.09
	c0,3.51,1.786,6.61,4.5,8.424c-1.658-0.051-3.218-0.509-4.583-1.266v0.127c0,4.903,3.489,8.994,8.118,9.924
	c-0.848,0.23-1.745,0.357-2.667,0.357c-0.651,0-1.287-0.065-1.904-0.185c1.288,4.021,5.025,6.946,9.453,7.031
	c-3.461,2.713-7.825,4.332-12.57,4.332c-0.816,0-1.621-0.05-2.412-0.142c4.479,2.869,9.798,4.545,15.517,4.545
	c18.615,0,28.795-15.419,28.795-28.795c0-0.437-0.011-0.874-0.027-1.311C58.591,25.513,60.305,23.731,61.666,21.7z"/>
</svg>
